# Blender 4.4.0
# www.blender.org
mtllib bossWaveWall.mtl
o 円柱
v 1.002940 -0.000000 -0.195090
v 1.002940 1.200000 -0.195090
v 1.000000 0.000000 0.000000
v 1.000000 1.500000 -0.000000
v 0.980785 0.000000 0.195090
v 0.980785 1.700000 0.195090
v 0.923880 0.000000 0.382683
v 0.923880 1.900000 0.382683
v 0.831470 0.000000 0.555570
v 0.831470 2.000000 0.555570
v 0.707107 0.000000 0.707107
v 0.707107 2.000000 0.707107
v 0.555570 0.000000 0.831470
v 0.555570 2.000000 0.831470
v 0.382683 0.000000 0.923880
v 0.382683 2.000000 0.923880
v 0.195090 0.000000 0.980785
v 0.195090 2.000000 0.980785
v 0.000000 0.000000 1.000000
v 0.000000 2.000000 1.000000
v -0.195090 0.000000 0.980785
v -0.195090 2.000000 0.980785
v -0.382683 0.000000 0.923880
v -0.382683 2.000000 0.923880
v -0.555570 0.000000 0.831470
v -0.555570 2.000000 0.831470
v -0.707107 0.000000 0.707107
v -0.707107 2.000000 0.707107
v -0.831470 0.000000 0.555570
v -0.831470 2.000000 0.555570
v -0.923880 0.000000 0.382683
v -0.923880 1.900000 0.382683
v -0.980785 0.000000 0.195090
v -0.980785 1.700000 0.195090
v -1.000000 0.000000 0.000000
v -1.000000 1.500000 -0.000000
v -1.000050 -0.000000 -0.195090
v -1.000050 1.200000 -0.195090
v 1.002940 -0.000000 -0.395090
v 1.002940 1.000000 -0.395090
v -1.000050 -0.000000 -0.395090
v -1.000050 1.000000 -0.395090
vn 0.9999 -0.0000 0.0151
vn 0.9952 -0.0000 0.0980
vn 0.9569 -0.0000 0.2903
vn 0.8819 -0.0000 0.4714
vn 0.7730 -0.0000 0.6344
vn 0.6344 -0.0000 0.7730
vn 0.4714 -0.0000 0.8819
vn 0.2903 -0.0000 0.9569
vn 0.0980 -0.0000 0.9952
vn -0.0980 -0.0000 0.9952
vn -0.2903 -0.0000 0.9569
vn -0.4714 -0.0000 0.8819
vn -0.6344 -0.0000 0.7730
vn -0.7730 -0.0000 0.6344
vn -0.8819 -0.0000 0.4714
vn -0.9569 -0.0000 0.2903
vn -0.9952 -0.0000 0.0980
vn -1.0000 -0.0000 0.0003
vn -1.0000 -0.0000 -0.0000
vn -1.0000 -0.0000 0.0001
vn 1.0000 -0.0000 -0.0000
vt 0.050626 0.235147
vt 0.100307 0.999558
vt 0.050626 0.999558
vt 0.100307 0.236269
vt 0.150223 0.999558
vt 0.150223 0.236500
vt 0.200138 0.999558
vt 0.200138 0.236731
vt 0.250054 0.999558
vt 0.250054 0.237622
vt 0.299970 0.999558
vt 0.299970 0.237622
vt 0.349885 0.999558
vt 0.349885 0.237622
vt 0.399801 0.999558
vt 0.399801 0.237622
vt 0.449717 0.999558
vt 0.449717 0.237622
vt 0.499632 0.999558
vt 0.499632 0.237622
vt 0.549548 0.999558
vt 0.549548 0.237622
vt 0.599463 0.999558
vt 0.599463 0.237622
vt 0.649379 0.999558
vt 0.649379 0.237622
vt 0.699295 0.999558
vt 0.699295 0.237622
vt 0.749211 0.999558
vt 0.799126 0.236731
vt 0.799126 0.999558
vt 0.849042 0.236500
vt 0.849042 0.999558
vt 0.898957 0.236269
vt 0.898957 0.999558
vt 0.948633 0.235147
vt 0.948633 0.999558
vt 0.999558 0.286073
vt 0.999558 0.999558
vt -0.000299 0.286073
vt 0.749211 0.237622
vt -0.000299 0.999558
s 1
usemtl マテリアル
f 2/1/1 3/2/1 1/3/1
f 4/4/2 5/5/2 3/2/2
f 6/6/3 7/7/3 5/5/3
f 8/8/4 9/9/4 7/7/4
f 10/10/5 11/11/5 9/9/5
f 12/12/6 13/13/6 11/11/6
f 14/14/7 15/15/7 13/13/7
f 16/16/8 17/17/8 15/15/8
f 18/18/9 19/19/9 17/17/9
f 20/20/10 21/21/10 19/19/10
f 22/22/11 23/23/11 21/21/11
f 24/24/12 25/25/12 23/23/12
f 26/26/13 27/27/13 25/25/13
f 28/28/14 29/29/14 27/27/14
f 29/29/15 32/30/15 31/31/15
f 31/31/16 34/32/16 33/33/16
f 33/33/17 36/34/17 35/35/17
f 35/35/18 38/36/19 37/37/20
f 37/37/20 42/38/19 41/39/19
f 1/3/21 40/40/21 2/1/21
f 2/1/1 4/4/1 3/2/1
f 4/4/2 6/6/2 5/5/2
f 6/6/3 8/8/3 7/7/3
f 8/8/4 10/10/4 9/9/4
f 10/10/5 12/12/5 11/11/5
f 12/12/6 14/14/6 13/13/6
f 14/14/7 16/16/7 15/15/7
f 16/16/8 18/18/8 17/17/8
f 18/18/9 20/20/9 19/19/9
f 20/20/10 22/22/10 21/21/10
f 22/22/11 24/24/11 23/23/11
f 24/24/12 26/26/12 25/25/12
f 26/26/13 28/28/13 27/27/13
f 28/28/14 30/41/14 29/29/14
f 29/29/15 30/41/15 32/30/15
f 31/31/16 32/30/16 34/32/16
f 33/33/17 34/32/17 36/34/17
f 35/35/18 36/34/18 38/36/18
f 37/37/20 38/36/19 42/38/19
f 1/3/21 39/42/21 40/40/21
