# Blender 4.4.0
# www.blender.org
mtllib lightning.mtl
o 平面.1_1
v 0.000000 0.046841 0.785133
v -0.000000 -3.953159 0.410820
v 0.000000 0.046841 -0.785133
v -0.000000 -3.953159 -0.410820
v 0.066345 -2.283924 0.600023
v 0.066345 -2.283924 -0.600023
v -0.263390 -1.501247 -0.719340
v -0.263390 -1.501247 0.719340
v -0.219595 -2.953159 0.533422
v -0.219595 -2.953159 -0.533422
v 0.694595 -0.171360 0.000000
v 0.358227 -3.953159 0.000000
v -0.712543 0.224814 0.000000
v -0.358514 -3.953159 0.000000
v 0.631822 -2.195596 -0.000000
v -0.472270 -2.193652 0.000000
v -0.970582 -1.419105 0.000000
v 0.517998 -1.528557 -0.000000
v 0.317064 -2.941041 -0.000000
v -0.503566 -2.948344 0.000000
vn 0.9767 0.2145 -0.0000
vn 0.9216 0.3882 -0.0000
vn 0.9858 -0.1677 -0.0000
vn 0.9196 -0.3929 -0.0000
vn -0.0000 -0.0000 -1.0000
vt 1.000736 0.999263
vt 0.000369 0.750736
vt 1.000368 0.749263
vt 0.999999 0.499264
vt -0.000368 0.250737
vt 0.999631 0.249264
vt -0.000736 0.000737
vt 0.999263 -0.000736
vt 0.000001 0.500736
vt 0.999918 0.750163
vt -0.000163 0.999837
vt -0.000081 0.749837
vt 1.000082 0.250163
vt 0.000000 0.499837
vt 0.000082 0.249837
vt 1.000163 0.000163
vt 0.000163 -0.000163
vt 1.000000 0.500163
vt 0.000737 1.000736
vt 0.999837 1.000163
s 0
usemtl マテリアル
f 2/1/1 10/2/1 9/3/1
f 5/4/2 7/5/2 8/6/2
f 8/6/3 3/7/3 1/8/3
f 9/3/4 6/9/4 5/4/4
f 2/1/1 4/19/1 10/2/1
f 5/4/2 6/9/2 7/5/2
f 8/6/3 7/5/3 3/7/3
f 9/3/4 10/2/4 6/9/4
usemtl マテリアル.001
f 19/10/5 14/11/5 20/12/5
f 18/13/5 16/14/5 17/15/5
f 11/16/5 17/15/5 13/17/5
f 19/10/5 16/14/5 15/18/5
f 19/10/5 12/20/5 14/11/5
f 18/13/5 15/18/5 16/14/5
f 11/16/5 18/13/5 17/15/5
f 19/10/5 20/12/5 16/14/5
