# Blender 4.4.0
# www.blender.org
mtllib playerModel.mtl
o Cube
v 0.500000 0.500000 -0.500000
v 0.500000 -0.500000 -0.500000
v 0.500000 0.500000 0.500000
v 0.500000 -0.500000 0.500000
v -0.500000 0.500000 -0.500000
v -0.500000 -0.500000 -0.500000
v -0.500000 0.500000 0.500000
v -0.500000 -0.500000 0.500000
v -0.945852 -0.444987 0.265921
v -1.193012 0.094290 0.355880
v -1.082660 -0.444987 -0.109956
v -1.329820 0.094290 -0.019997
v -0.270180 -0.094290 0.019997
v -0.517340 0.444987 0.109956
v -0.406988 -0.094290 -0.355880
v -0.654148 0.444987 -0.265921
v 0.270180 -0.094290 0.019997
v 0.517340 0.444987 0.109956
v 0.406988 -0.094290 -0.355880
v 0.654148 0.444987 -0.265921
v 0.945852 -0.444987 0.265921
v 1.193012 0.094290 0.355880
v 1.082660 -0.444987 -0.109956
v 1.329820 0.094290 -0.019997
vn -0.0000 1.0000 -0.0000
vn -0.0000 -0.0000 1.0000
vn -1.0000 -0.0000 -0.0000
vn -0.0000 -1.0000 -0.0000
vn 1.0000 -0.0000 -0.0000
vn -0.0000 -0.0000 -1.0000
vn -0.8446 -0.4384 0.3074
vn -0.3420 -0.0000 -0.9397
vn 0.8446 0.4384 -0.3074
vn 0.3420 -0.0000 0.9397
vn 0.4119 -0.8988 -0.1499
vn -0.4119 0.8988 0.1499
vn -0.8446 0.4384 -0.3074
vn 0.3420 -0.0000 -0.9397
vn 0.8446 -0.4384 0.3074
vn -0.3420 -0.0000 0.9397
vn -0.4119 -0.8988 -0.1499
vn 0.4119 0.8988 0.1499
vt 0.875000 0.500000
vt 0.625000 0.750000
vt 0.625000 0.500000
vt 0.375000 1.000000
vt 0.375000 0.750000
vt 0.625000 0.000000
vt 0.375000 0.250000
vt 0.375000 0.000000
vt 0.375000 0.500000
vt 0.125000 0.750000
vt 0.125000 0.500000
vt 0.625000 0.250000
vt 0.000000 0.000000
vt 0.875000 0.750000
vt 0.625000 1.000000
s 0
usemtl Material
f 5/1/1 3/2/1 1/3/1
f 3/2/2 8/4/2 4/5/2
f 7/6/3 6/7/3 8/8/3
f 2/9/4 8/10/4 6/11/4
f 1/3/5 4/5/5 2/9/5
f 5/12/6 2/9/6 6/7/6
f 5/1/1 7/14/1 3/2/1
f 3/2/2 7/15/2 8/4/2
f 7/6/3 5/12/3 6/7/3
f 2/9/4 4/5/4 8/10/4
f 1/3/5 3/2/5 4/5/5
f 5/12/6 1/3/6 2/9/6
usemtl 
f 9/13/7 12/13/7 11/13/7
f 12/13/8 15/13/8 11/13/8
f 16/13/9 13/13/9 15/13/9
f 13/13/10 10/13/10 9/13/10
f 11/13/11 13/13/11 9/13/11
f 16/13/12 10/13/12 14/13/12
f 18/13/13 19/13/13 17/13/13
f 20/13/14 23/13/14 19/13/14
f 24/13/15 21/13/15 23/13/15
f 22/13/16 17/13/16 21/13/16
f 23/13/17 17/13/17 19/13/17
f 24/13/18 18/13/18 22/13/18
f 9/13/7 10/13/7 12/13/7
f 12/13/8 16/13/8 15/13/8
f 16/13/9 14/13/9 13/13/9
f 13/13/10 14/13/10 10/13/10
f 11/13/11 15/13/11 13/13/11
f 16/13/12 12/13/12 10/13/12
f 18/13/13 20/13/13 19/13/13
f 20/13/14 24/13/14 23/13/14
f 24/13/15 22/13/15 21/13/15
f 22/13/16 18/13/16 17/13/16
f 23/13/17 21/13/17 17/13/17
f 24/13/18 20/13/18 18/13/18
