{
	"asset":{
		"generator":"Khronos glTF Blender I/O v4.1.63",
		"version":"2.0"
	},
	"scene":0,
	"scenes":[
		{
			"name":"Scene",
			"nodes":[
				2
			]
		}
	],
	"nodes":[
		{
			"name":"bone",
			"rotation":[
				-2.980232594040899e-08,
				1.1920927533992653e-07,
				0,
				1
			],
			"scale":[
				1,
				0.9999999403953552,
				0.9999999403953552
			]
		},
		{
			"mesh":0,
			"name":"n.003",
			"skin":0
		},
		{
			"children":[
				1,
				0
			],
			"name":"2",
			"translation":[
				-0.30331528186798096,
				0.1608889251947403,
				0
			]
		}
	],
	"animations":[
		{
			"channels":[
				{
					"sampler":0,
					"target":{
						"node":0,
						"path":"translation"
					}
				},
				{
					"sampler":1,
					"target":{
						"node":0,
						"path":"rotation"
					}
				},
				{
					"sampler":2,
					"target":{
						"node":0,
						"path":"scale"
					}
				}
			],
			"name":"2Action",
			"samplers":[
				{
					"input":8,
					"interpolation":"STEP",
					"output":9
				},
				{
					"input":8,
					"interpolation":"STEP",
					"output":10
				},
				{
					"input":11,
					"interpolation":"LINEAR",
					"output":12
				}
			]
		}
	],
	"materials":[
		{
			"doubleSided":true,
			"name":"\u30de\u30c6\u30ea\u30a2\u30eb",
			"pbrMetallicRoughness":{
				"baseColorTexture":{
					"index":0
				},
				"metallicFactor":0,
				"roughnessFactor":0.5
			}
		}
	],
	"meshes":[
		{
			"name":"n",
			"primitives":[
				{
					"attributes":{
						"POSITION":0,
						"NORMAL":1,
						"TEXCOORD_0":2,
						"TEXCOORD_1":3,
						"JOINTS_0":4,
						"WEIGHTS_0":5
					},
					"indices":6,
					"material":0
				}
			]
		}
	],
	"textures":[
		{
			"sampler":0,
			"source":0
		}
	],
	"images":[
		{
			"mimeType":"image/png",
			"name":"title",
			"uri":"title.png"
		}
	],
	"skins":[
		{
			"inverseBindMatrices":7,
			"joints":[
				0
			],
			"name":"2"
		}
	],
	"accessors":[
		{
			"bufferView":0,
			"componentType":5126,
			"count":1940,
			"max":[
				-0.021574199199676514,
				0.6606482863426208,
				0.05000002309679985
			],
			"min":[
				-0.5155410766601562,
				0.13274487853050232,
				-0.04999999329447746
			],
			"type":"VEC3"
		},
		{
			"bufferView":1,
			"componentType":5126,
			"count":1940,
			"type":"VEC3"
		},
		{
			"bufferView":2,
			"componentType":5126,
			"count":1940,
			"type":"VEC2"
		},
		{
			"bufferView":3,
			"componentType":5126,
			"count":1940,
			"type":"VEC2"
		},
		{
			"bufferView":4,
			"componentType":5121,
			"count":1940,
			"type":"VEC4"
		},
		{
			"bufferView":5,
			"componentType":5126,
			"count":1940,
			"type":"VEC4"
		},
		{
			"bufferView":6,
			"componentType":5123,
			"count":5748,
			"type":"SCALAR"
		},
		{
			"bufferView":7,
			"componentType":5126,
			"count":1,
			"type":"MAT4"
		},
		{
			"bufferView":8,
			"componentType":5126,
			"count":2,
			"max":[
				3.75
			],
			"min":[
				0
			],
			"type":"SCALAR"
		},
		{
			"bufferView":9,
			"componentType":5126,
			"count":2,
			"type":"VEC3"
		},
		{
			"bufferView":10,
			"componentType":5126,
			"count":2,
			"type":"VEC4"
		},
		{
			"bufferView":11,
			"componentType":5126,
			"count":91,
			"max":[
				3.75
			],
			"min":[
				0
			],
			"type":"SCALAR"
		},
		{
			"bufferView":12,
			"componentType":5126,
			"count":91,
			"type":"VEC3"
		}
	],
	"bufferViews":[
		{
			"buffer":0,
			"byteLength":23280,
			"byteOffset":0,
			"target":34962
		},
		{
			"buffer":0,
			"byteLength":23280,
			"byteOffset":23280,
			"target":34962
		},
		{
			"buffer":0,
			"byteLength":15520,
			"byteOffset":46560,
			"target":34962
		},
		{
			"buffer":0,
			"byteLength":15520,
			"byteOffset":62080,
			"target":34962
		},
		{
			"buffer":0,
			"byteLength":7760,
			"byteOffset":77600,
			"target":34962
		},
		{
			"buffer":0,
			"byteLength":31040,
			"byteOffset":85360,
			"target":34962
		},
		{
			"buffer":0,
			"byteLength":11496,
			"byteOffset":116400,
			"target":34963
		},
		{
			"buffer":0,
			"byteLength":64,
			"byteOffset":127896
		},
		{
			"buffer":0,
			"byteLength":8,
			"byteOffset":127960
		},
		{
			"buffer":0,
			"byteLength":24,
			"byteOffset":127968
		},
		{
			"buffer":0,
			"byteLength":32,
			"byteOffset":127992
		},
		{
			"buffer":0,
			"byteLength":364,
			"byteOffset":128024
		},
		{
			"buffer":0,
			"byteLength":1092,
			"byteOffset":128388
		}
	],
	"samplers":[
		{
			"magFilter":9729,
			"minFilter":9987
		}
	],
	"buffers":[
		{
			"byteLength":129480,
			"uri":"title2.bin"
		}
	]
}
