{
	"asset":{
		"generator":"Khronos glTF Blender I/O v4.1.63",
		"version":"2.0"
	},
	"scene":0,
	"scenes":[
		{
			"name":"Scene",
			"nodes":[
				0
			]
		}
	],
	"nodes":[
		{
			"mesh":0,
			"name":"n.003"
		}
	],
	"animations":[
		{
			"channels":[
				{
					"sampler":0,
					"target":{
						"node":0,
						"path":"translation"
					}
				},
				{
					"sampler":1,
					"target":{
						"node":0,
						"path":"rotation"
					}
				},
				{
					"sampler":2,
					"target":{
						"node":0,
						"path":"scale"
					}
				}
			],
			"name":"n.003Action",
			"samplers":[
				{
					"input":5,
					"interpolation":"LINEAR",
					"output":6
				},
				{
					"input":7,
					"interpolation":"STEP",
					"output":8
				},
				{
					"input":5,
					"interpolation":"LINEAR",
					"output":9
				}
			]
		}
	],
	"materials":[
		{
			"doubleSided":true,
			"name":"\u30de\u30c6\u30ea\u30a2\u30eb",
			"pbrMetallicRoughness":{
				"baseColorTexture":{
					"index":0
				},
				"metallicFactor":0,
				"roughnessFactor":0.5
			}
		}
	],
	"meshes":[
		{
			"name":"\u7403.013",
			"primitives":[
				{
					"attributes":{
						"POSITION":0,
						"NORMAL":1,
						"TEXCOORD_0":2,
						"TEXCOORD_1":3
					},
					"indices":4,
					"material":0
				}
			]
		}
	],
	"textures":[
		{
			"sampler":0,
			"source":0
		}
	],
	"images":[
		{
			"mimeType":"image/png",
			"name":"title",
			"uri":"title.png"
		}
	],
	"accessors":[
		{
			"bufferView":0,
			"componentType":5126,
			"count":1940,
			"max":[
				-0.021574199199676514,
				0.6606482863426208,
				0.05000002309679985
			],
			"min":[
				-0.5155410766601562,
				0.13274487853050232,
				-0.04999999329447746
			],
			"type":"VEC3"
		},
		{
			"bufferView":1,
			"componentType":5126,
			"count":1940,
			"type":"VEC3"
		},
		{
			"bufferView":2,
			"componentType":5126,
			"count":1940,
			"type":"VEC2"
		},
		{
			"bufferView":3,
			"componentType":5126,
			"count":1940,
			"type":"VEC2"
		},
		{
			"bufferView":4,
			"componentType":5123,
			"count":5748,
			"type":"SCALAR"
		},
		{
			"bufferView":5,
			"componentType":5126,
			"count":70,
			"max":[
				2.9166666666666665
			],
			"min":[
				0.041666666666666664
			],
			"type":"SCALAR"
		},
		{
			"bufferView":6,
			"componentType":5126,
			"count":70,
			"type":"VEC3"
		},
		{
			"bufferView":7,
			"componentType":5126,
			"count":2,
			"max":[
				2.9166666666666665
			],
			"min":[
				0.041666666666666664
			],
			"type":"SCALAR"
		},
		{
			"bufferView":8,
			"componentType":5126,
			"count":2,
			"type":"VEC4"
		},
		{
			"bufferView":9,
			"componentType":5126,
			"count":70,
			"type":"VEC3"
		}
	],
	"bufferViews":[
		{
			"buffer":0,
			"byteLength":23280,
			"byteOffset":0,
			"target":34962
		},
		{
			"buffer":0,
			"byteLength":23280,
			"byteOffset":23280,
			"target":34962
		},
		{
			"buffer":0,
			"byteLength":15520,
			"byteOffset":46560,
			"target":34962
		},
		{
			"buffer":0,
			"byteLength":15520,
			"byteOffset":62080,
			"target":34962
		},
		{
			"buffer":0,
			"byteLength":11496,
			"byteOffset":77600,
			"target":34963
		},
		{
			"buffer":0,
			"byteLength":280,
			"byteOffset":89096
		},
		{
			"buffer":0,
			"byteLength":840,
			"byteOffset":89376
		},
		{
			"buffer":0,
			"byteLength":8,
			"byteOffset":90216
		},
		{
			"buffer":0,
			"byteLength":32,
			"byteOffset":90224
		},
		{
			"buffer":0,
			"byteLength":840,
			"byteOffset":90256
		}
	],
	"samplers":[
		{
			"magFilter":9729,
			"minFilter":9987
		}
	],
	"buffers":[
		{
			"byteLength":91096,
			"uri":"title2.bin"
		}
	]
}
