{
	"asset":{
		"generator":"Khronos glTF Blender I/O v4.1.63",
		"version":"2.0"
	},
	"scene":0,
	"scenes":[
		{
			"name":"Scene",
			"nodes":[
				0
			]
		}
	],
	"nodes":[
		{
			"mesh":0,
			"name":"ge.004"
		}
	],
	"animations":[
		{
			"channels":[
				{
					"sampler":0,
					"target":{
						"node":0,
						"path":"translation"
					}
				},
				{
					"sampler":1,
					"target":{
						"node":0,
						"path":"rotation"
					}
				},
				{
					"sampler":2,
					"target":{
						"node":0,
						"path":"scale"
					}
				}
			],
			"name":"ge.004Action",
			"samplers":[
				{
					"input":14,
					"interpolation":"LINEAR",
					"output":15
				},
				{
					"input":16,
					"interpolation":"STEP",
					"output":17
				},
				{
					"input":14,
					"interpolation":"LINEAR",
					"output":18
				}
			]
		}
	],
	"materials":[
		{
			"doubleSided":true,
			"name":"\u30de\u30c6\u30ea\u30a2\u30eb",
			"pbrMetallicRoughness":{
				"baseColorTexture":{
					"index":0
				},
				"metallicFactor":0,
				"roughnessFactor":0.5
			}
		},
		{
			"doubleSided":true,
			"name":"\u30de\u30c6\u30ea\u30a2\u30eb.001",
			"pbrMetallicRoughness":{
				"baseColorTexture":{
					"index":1
				},
				"metallicFactor":0,
				"roughnessFactor":0.5
			}
		},
		{
			"doubleSided":true,
			"name":"\u30de\u30c6\u30ea\u30a2\u30eb.002",
			"pbrMetallicRoughness":{
				"baseColorTexture":{
					"index":2
				},
				"metallicFactor":0,
				"roughnessFactor":0.5
			}
		}
	],
	"meshes":[
		{
			"name":"\u7403.014",
			"primitives":[
				{
					"attributes":{
						"POSITION":0,
						"NORMAL":1,
						"TEXCOORD_0":2,
						"TEXCOORD_1":3
					},
					"indices":4,
					"material":0
				},
				{
					"attributes":{
						"POSITION":5,
						"NORMAL":6,
						"TEXCOORD_0":7,
						"TEXCOORD_1":8
					},
					"indices":9,
					"material":1
				},
				{
					"attributes":{
						"POSITION":10,
						"NORMAL":11,
						"TEXCOORD_0":12,
						"TEXCOORD_1":13
					},
					"indices":9,
					"material":2
				}
			]
		}
	],
	"textures":[
		{
			"sampler":0,
			"source":0
		},
		{
			"sampler":0,
			"source":1
		},
		{
			"sampler":0,
			"source":1
		}
	],
	"images":[
		{
			"mimeType":"image/png",
			"name":"title",
			"uri":"title.png"
		},
		{
			"mimeType":"image/png",
			"name":"title.png",
			"uri":"title_png.png"
		}
	],
	"accessors":[
		{
			"bufferView":0,
			"componentType":5126,
			"count":2026,
			"max":[
				0.5998294949531555,
				0.6568775773048401,
				0.05000002309679985
			],
			"min":[
				0.007823467254638672,
				0.1350073218345642,
				-0.04999999329447746
			],
			"type":"VEC3"
		},
		{
			"bufferView":1,
			"componentType":5126,
			"count":2026,
			"type":"VEC3"
		},
		{
			"bufferView":2,
			"componentType":5126,
			"count":2026,
			"type":"VEC2"
		},
		{
			"bufferView":3,
			"componentType":5126,
			"count":2026,
			"type":"VEC2"
		},
		{
			"bufferView":4,
			"componentType":5123,
			"count":6024,
			"type":"SCALAR"
		},
		{
			"bufferView":5,
			"componentType":5126,
			"count":1479,
			"max":[
				0.571911096572876,
				0.7297371029853821,
				0.07590640336275101
			],
			"min":[
				0.47436949610710144,
				0.6028918027877808,
				-0.05340288206934929
			],
			"type":"VEC3"
		},
		{
			"bufferView":6,
			"componentType":5126,
			"count":1479,
			"type":"VEC3"
		},
		{
			"bufferView":7,
			"componentType":5126,
			"count":1479,
			"type":"VEC2"
		},
		{
			"bufferView":8,
			"componentType":5126,
			"count":1479,
			"type":"VEC2"
		},
		{
			"bufferView":9,
			"componentType":5123,
			"count":7482,
			"type":"SCALAR"
		},
		{
			"bufferView":10,
			"componentType":5126,
			"count":1479,
			"max":[
				0.6818075776100159,
				0.7297371029853821,
				0.07590640336275101
			],
			"min":[
				0.5842660069465637,
				0.6028918027877808,
				-0.05340288206934929
			],
			"type":"VEC3"
		},
		{
			"bufferView":11,
			"componentType":5126,
			"count":1479,
			"type":"VEC3"
		},
		{
			"bufferView":12,
			"componentType":5126,
			"count":1479,
			"type":"VEC2"
		},
		{
			"bufferView":13,
			"componentType":5126,
			"count":1479,
			"type":"VEC2"
		},
		{
			"bufferView":14,
			"componentType":5126,
			"count":70,
			"max":[
				2.9166666666666665
			],
			"min":[
				0.041666666666666664
			],
			"type":"SCALAR"
		},
		{
			"bufferView":15,
			"componentType":5126,
			"count":70,
			"type":"VEC3"
		},
		{
			"bufferView":16,
			"componentType":5126,
			"count":2,
			"max":[
				2.9166666666666665
			],
			"min":[
				0.041666666666666664
			],
			"type":"SCALAR"
		},
		{
			"bufferView":17,
			"componentType":5126,
			"count":2,
			"type":"VEC4"
		},
		{
			"bufferView":18,
			"componentType":5126,
			"count":70,
			"type":"VEC3"
		}
	],
	"bufferViews":[
		{
			"buffer":0,
			"byteLength":24312,
			"byteOffset":0,
			"target":34962
		},
		{
			"buffer":0,
			"byteLength":24312,
			"byteOffset":24312,
			"target":34962
		},
		{
			"buffer":0,
			"byteLength":16208,
			"byteOffset":48624,
			"target":34962
		},
		{
			"buffer":0,
			"byteLength":16208,
			"byteOffset":64832,
			"target":34962
		},
		{
			"buffer":0,
			"byteLength":12048,
			"byteOffset":81040,
			"target":34963
		},
		{
			"buffer":0,
			"byteLength":17748,
			"byteOffset":93088,
			"target":34962
		},
		{
			"buffer":0,
			"byteLength":17748,
			"byteOffset":110836,
			"target":34962
		},
		{
			"buffer":0,
			"byteLength":11832,
			"byteOffset":128584,
			"target":34962
		},
		{
			"buffer":0,
			"byteLength":11832,
			"byteOffset":140416,
			"target":34962
		},
		{
			"buffer":0,
			"byteLength":14964,
			"byteOffset":152248,
			"target":34963
		},
		{
			"buffer":0,
			"byteLength":17748,
			"byteOffset":167212,
			"target":34962
		},
		{
			"buffer":0,
			"byteLength":17748,
			"byteOffset":184960,
			"target":34962
		},
		{
			"buffer":0,
			"byteLength":11832,
			"byteOffset":202708,
			"target":34962
		},
		{
			"buffer":0,
			"byteLength":11832,
			"byteOffset":214540,
			"target":34962
		},
		{
			"buffer":0,
			"byteLength":280,
			"byteOffset":226372
		},
		{
			"buffer":0,
			"byteLength":840,
			"byteOffset":226652
		},
		{
			"buffer":0,
			"byteLength":8,
			"byteOffset":227492
		},
		{
			"buffer":0,
			"byteLength":32,
			"byteOffset":227500
		},
		{
			"buffer":0,
			"byteLength":840,
			"byteOffset":227532
		}
	],
	"samplers":[
		{
			"magFilter":9729,
			"minFilter":9987
		}
	],
	"buffers":[
		{
			"byteLength":228372,
			"uri":"title3.bin"
		}
	]
}
