{
	"asset":{
		"generator":"Khronos glTF Blender I/O v4.1.63",
		"version":"2.0"
	},
	"scene":0,
	"scenes":[
		{
			"name":"Scene",
			"nodes":[
				2
			]
		}
	],
	"nodes":[
		{
			"name":"bone"
		},
		{
			"mesh":0,
			"name":"ge.004",
			"skin":0
		},
		{
			"children":[
				1,
				0
			],
			"name":"3",
			"translation":[
				0.24265220761299133,
				0.1714390367269516,
				0
			]
		}
	],
	"animations":[
		{
			"channels":[
				{
					"sampler":0,
					"target":{
						"node":0,
						"path":"translation"
					}
				},
				{
					"sampler":1,
					"target":{
						"node":0,
						"path":"rotation"
					}
				},
				{
					"sampler":2,
					"target":{
						"node":0,
						"path":"scale"
					}
				}
			],
			"name":"3Action.001",
			"samplers":[
				{
					"input":21,
					"interpolation":"STEP",
					"output":22
				},
				{
					"input":21,
					"interpolation":"STEP",
					"output":23
				},
				{
					"input":24,
					"interpolation":"LINEAR",
					"output":25
				}
			]
		}
	],
	"materials":[
		{
			"doubleSided":true,
			"name":"\u30de\u30c6\u30ea\u30a2\u30eb",
			"pbrMetallicRoughness":{
				"baseColorTexture":{
					"index":0
				},
				"metallicFactor":0,
				"roughnessFactor":0.5
			}
		},
		{
			"doubleSided":true,
			"name":"\u30de\u30c6\u30ea\u30a2\u30eb.001",
			"pbrMetallicRoughness":{
				"baseColorTexture":{
					"index":1
				},
				"metallicFactor":0,
				"roughnessFactor":0.5
			}
		},
		{
			"doubleSided":true,
			"name":"\u30de\u30c6\u30ea\u30a2\u30eb.002",
			"pbrMetallicRoughness":{
				"baseColorTexture":{
					"index":2
				},
				"metallicFactor":0,
				"roughnessFactor":0.5
			}
		}
	],
	"meshes":[
		{
			"name":"ge",
			"primitives":[
				{
					"attributes":{
						"POSITION":0,
						"NORMAL":1,
						"TEXCOORD_0":2,
						"TEXCOORD_1":3,
						"JOINTS_0":4,
						"WEIGHTS_0":5
					},
					"indices":6,
					"material":0
				},
				{
					"attributes":{
						"POSITION":7,
						"NORMAL":8,
						"TEXCOORD_0":9,
						"TEXCOORD_1":10,
						"JOINTS_0":11,
						"WEIGHTS_0":12
					},
					"indices":13,
					"material":1
				},
				{
					"attributes":{
						"POSITION":14,
						"NORMAL":15,
						"TEXCOORD_0":16,
						"TEXCOORD_1":17,
						"JOINTS_0":18,
						"WEIGHTS_0":19
					},
					"indices":13,
					"material":2
				}
			]
		}
	],
	"textures":[
		{
			"sampler":0,
			"source":0
		},
		{
			"sampler":0,
			"source":1
		},
		{
			"sampler":0,
			"source":1
		}
	],
	"images":[
		{
			"mimeType":"image/png",
			"name":"title",
			"uri":"title.png"
		},
		{
			"mimeType":"image/png",
			"name":"title.png",
			"uri":"title_png.png"
		}
	],
	"skins":[
		{
			"inverseBindMatrices":20,
			"joints":[
				0
			],
			"name":"3"
		}
	],
	"accessors":[
		{
			"bufferView":0,
			"componentType":5126,
			"count":2026,
			"max":[
				0.5998294949531555,
				0.6568775773048401,
				0.05000002309679985
			],
			"min":[
				0.007823467254638672,
				0.1350073218345642,
				-0.04999999329447746
			],
			"type":"VEC3"
		},
		{
			"bufferView":1,
			"componentType":5126,
			"count":2026,
			"type":"VEC3"
		},
		{
			"bufferView":2,
			"componentType":5126,
			"count":2026,
			"type":"VEC2"
		},
		{
			"bufferView":3,
			"componentType":5126,
			"count":2026,
			"type":"VEC2"
		},
		{
			"bufferView":4,
			"componentType":5121,
			"count":2026,
			"type":"VEC4"
		},
		{
			"bufferView":5,
			"componentType":5126,
			"count":2026,
			"type":"VEC4"
		},
		{
			"bufferView":6,
			"componentType":5123,
			"count":6024,
			"type":"SCALAR"
		},
		{
			"bufferView":7,
			"componentType":5126,
			"count":1479,
			"max":[
				0.571911096572876,
				0.7297371029853821,
				0.07590640336275101
			],
			"min":[
				0.47436949610710144,
				0.6028918027877808,
				-0.05340288206934929
			],
			"type":"VEC3"
		},
		{
			"bufferView":8,
			"componentType":5126,
			"count":1479,
			"type":"VEC3"
		},
		{
			"bufferView":9,
			"componentType":5126,
			"count":1479,
			"type":"VEC2"
		},
		{
			"bufferView":10,
			"componentType":5126,
			"count":1479,
			"type":"VEC2"
		},
		{
			"bufferView":11,
			"componentType":5121,
			"count":1479,
			"type":"VEC4"
		},
		{
			"bufferView":12,
			"componentType":5126,
			"count":1479,
			"type":"VEC4"
		},
		{
			"bufferView":13,
			"componentType":5123,
			"count":7482,
			"type":"SCALAR"
		},
		{
			"bufferView":14,
			"componentType":5126,
			"count":1479,
			"max":[
				0.6818075776100159,
				0.7297371029853821,
				0.07590640336275101
			],
			"min":[
				0.5842660069465637,
				0.6028918027877808,
				-0.05340288206934929
			],
			"type":"VEC3"
		},
		{
			"bufferView":15,
			"componentType":5126,
			"count":1479,
			"type":"VEC3"
		},
		{
			"bufferView":16,
			"componentType":5126,
			"count":1479,
			"type":"VEC2"
		},
		{
			"bufferView":17,
			"componentType":5126,
			"count":1479,
			"type":"VEC2"
		},
		{
			"bufferView":18,
			"componentType":5121,
			"count":1479,
			"type":"VEC4"
		},
		{
			"bufferView":19,
			"componentType":5126,
			"count":1479,
			"type":"VEC4"
		},
		{
			"bufferView":20,
			"componentType":5126,
			"count":1,
			"type":"MAT4"
		},
		{
			"bufferView":21,
			"componentType":5126,
			"count":2,
			"max":[
				3.75
			],
			"min":[
				0
			],
			"type":"SCALAR"
		},
		{
			"bufferView":22,
			"componentType":5126,
			"count":2,
			"type":"VEC3"
		},
		{
			"bufferView":23,
			"componentType":5126,
			"count":2,
			"type":"VEC4"
		},
		{
			"bufferView":24,
			"componentType":5126,
			"count":91,
			"max":[
				3.75
			],
			"min":[
				0
			],
			"type":"SCALAR"
		},
		{
			"bufferView":25,
			"componentType":5126,
			"count":91,
			"type":"VEC3"
		}
	],
	"bufferViews":[
		{
			"buffer":0,
			"byteLength":24312,
			"byteOffset":0,
			"target":34962
		},
		{
			"buffer":0,
			"byteLength":24312,
			"byteOffset":24312,
			"target":34962
		},
		{
			"buffer":0,
			"byteLength":16208,
			"byteOffset":48624,
			"target":34962
		},
		{
			"buffer":0,
			"byteLength":16208,
			"byteOffset":64832,
			"target":34962
		},
		{
			"buffer":0,
			"byteLength":8104,
			"byteOffset":81040,
			"target":34962
		},
		{
			"buffer":0,
			"byteLength":32416,
			"byteOffset":89144,
			"target":34962
		},
		{
			"buffer":0,
			"byteLength":12048,
			"byteOffset":121560,
			"target":34963
		},
		{
			"buffer":0,
			"byteLength":17748,
			"byteOffset":133608,
			"target":34962
		},
		{
			"buffer":0,
			"byteLength":17748,
			"byteOffset":151356,
			"target":34962
		},
		{
			"buffer":0,
			"byteLength":11832,
			"byteOffset":169104,
			"target":34962
		},
		{
			"buffer":0,
			"byteLength":11832,
			"byteOffset":180936,
			"target":34962
		},
		{
			"buffer":0,
			"byteLength":5916,
			"byteOffset":192768,
			"target":34962
		},
		{
			"buffer":0,
			"byteLength":23664,
			"byteOffset":198684,
			"target":34962
		},
		{
			"buffer":0,
			"byteLength":14964,
			"byteOffset":222348,
			"target":34963
		},
		{
			"buffer":0,
			"byteLength":17748,
			"byteOffset":237312,
			"target":34962
		},
		{
			"buffer":0,
			"byteLength":17748,
			"byteOffset":255060,
			"target":34962
		},
		{
			"buffer":0,
			"byteLength":11832,
			"byteOffset":272808,
			"target":34962
		},
		{
			"buffer":0,
			"byteLength":11832,
			"byteOffset":284640,
			"target":34962
		},
		{
			"buffer":0,
			"byteLength":5916,
			"byteOffset":296472,
			"target":34962
		},
		{
			"buffer":0,
			"byteLength":23664,
			"byteOffset":302388,
			"target":34962
		},
		{
			"buffer":0,
			"byteLength":64,
			"byteOffset":326052
		},
		{
			"buffer":0,
			"byteLength":8,
			"byteOffset":326116
		},
		{
			"buffer":0,
			"byteLength":24,
			"byteOffset":326124
		},
		{
			"buffer":0,
			"byteLength":32,
			"byteOffset":326148
		},
		{
			"buffer":0,
			"byteLength":364,
			"byteOffset":326180
		},
		{
			"buffer":0,
			"byteLength":1092,
			"byteOffset":326544
		}
	],
	"samplers":[
		{
			"magFilter":9729,
			"minFilter":9987
		}
	],
	"buffers":[
		{
			"byteLength":327636,
			"uri":"title3.bin"
		}
	]
}
