{
	"asset":{
		"generator":"Khronos glTF Blender I/O v4.1.63",
		"version":"2.0"
	},
	"scene":0,
	"scenes":[
		{
			"name":"Scene",
			"nodes":[
				2
			]
		}
	],
	"nodes":[
		{
			"name":"bone"
		},
		{
			"mesh":0,
			"name":"ni.002",
			"skin":0
		},
		{
			"children":[
				1,
				0
			],
			"name":"1",
			"translation":[
				-0.8545576333999634,
				0.16711348295211792,
				0
			]
		}
	],
	"animations":[
		{
			"channels":[
				{
					"sampler":0,
					"target":{
						"node":0,
						"path":"translation"
					}
				},
				{
					"sampler":1,
					"target":{
						"node":0,
						"path":"rotation"
					}
				},
				{
					"sampler":2,
					"target":{
						"node":0,
						"path":"scale"
					}
				}
			],
			"name":"1Action",
			"samplers":[
				{
					"input":8,
					"interpolation":"STEP",
					"output":9
				},
				{
					"input":8,
					"interpolation":"STEP",
					"output":10
				},
				{
					"input":11,
					"interpolation":"LINEAR",
					"output":12
				}
			]
		}
	],
	"materials":[
		{
			"doubleSided":true,
			"name":"\u30de\u30c6\u30ea\u30a2\u30eb",
			"pbrMetallicRoughness":{
				"baseColorTexture":{
					"index":0
				},
				"metallicFactor":0,
				"roughnessFactor":0.5
			}
		}
	],
	"meshes":[
		{
			"name":"ni",
			"primitives":[
				{
					"attributes":{
						"POSITION":0,
						"NORMAL":1,
						"TEXCOORD_0":2,
						"TEXCOORD_1":3,
						"JOINTS_0":4,
						"WEIGHTS_0":5
					},
					"indices":6,
					"material":0
				}
			]
		}
	],
	"textures":[
		{
			"sampler":0,
			"source":0
		}
	],
	"images":[
		{
			"mimeType":"image/png",
			"name":"title",
			"uri":"title.png"
		}
	],
	"skins":[
		{
			"inverseBindMatrices":7,
			"joints":[
				0
			],
			"name":"1"
		}
	],
	"accessors":[
		{
			"bufferView":0,
			"componentType":5126,
			"count":2474,
			"max":[
				-0.5822517275810242,
				0.6402862668037415,
				0.05000002309679985
			],
			"min":[
				-1.116188406944275,
				0.1297282874584198,
				-0.04999999329447746
			],
			"type":"VEC3"
		},
		{
			"bufferView":1,
			"componentType":5126,
			"count":2474,
			"type":"VEC3"
		},
		{
			"bufferView":2,
			"componentType":5126,
			"count":2474,
			"type":"VEC2"
		},
		{
			"bufferView":3,
			"componentType":5126,
			"count":2474,
			"type":"VEC2"
		},
		{
			"bufferView":4,
			"componentType":5121,
			"count":2474,
			"type":"VEC4"
		},
		{
			"bufferView":5,
			"componentType":5126,
			"count":2474,
			"type":"VEC4"
		},
		{
			"bufferView":6,
			"componentType":5123,
			"count":7308,
			"type":"SCALAR"
		},
		{
			"bufferView":7,
			"componentType":5126,
			"count":1,
			"type":"MAT4"
		},
		{
			"bufferView":8,
			"componentType":5126,
			"count":2,
			"max":[
				3.75
			],
			"min":[
				0
			],
			"type":"SCALAR"
		},
		{
			"bufferView":9,
			"componentType":5126,
			"count":2,
			"type":"VEC3"
		},
		{
			"bufferView":10,
			"componentType":5126,
			"count":2,
			"type":"VEC4"
		},
		{
			"bufferView":11,
			"componentType":5126,
			"count":91,
			"max":[
				3.75
			],
			"min":[
				0
			],
			"type":"SCALAR"
		},
		{
			"bufferView":12,
			"componentType":5126,
			"count":91,
			"type":"VEC3"
		}
	],
	"bufferViews":[
		{
			"buffer":0,
			"byteLength":29688,
			"byteOffset":0,
			"target":34962
		},
		{
			"buffer":0,
			"byteLength":29688,
			"byteOffset":29688,
			"target":34962
		},
		{
			"buffer":0,
			"byteLength":19792,
			"byteOffset":59376,
			"target":34962
		},
		{
			"buffer":0,
			"byteLength":19792,
			"byteOffset":79168,
			"target":34962
		},
		{
			"buffer":0,
			"byteLength":9896,
			"byteOffset":98960,
			"target":34962
		},
		{
			"buffer":0,
			"byteLength":39584,
			"byteOffset":108856,
			"target":34962
		},
		{
			"buffer":0,
			"byteLength":14616,
			"byteOffset":148440,
			"target":34963
		},
		{
			"buffer":0,
			"byteLength":64,
			"byteOffset":163056
		},
		{
			"buffer":0,
			"byteLength":8,
			"byteOffset":163120
		},
		{
			"buffer":0,
			"byteLength":24,
			"byteOffset":163128
		},
		{
			"buffer":0,
			"byteLength":32,
			"byteOffset":163152
		},
		{
			"buffer":0,
			"byteLength":364,
			"byteOffset":163184
		},
		{
			"buffer":0,
			"byteLength":1092,
			"byteOffset":163548
		}
	],
	"samplers":[
		{
			"magFilter":9729,
			"minFilter":9987
		}
	],
	"buffers":[
		{
			"byteLength":164640,
			"uri":"title1.bin"
		}
	]
}
