{
	"asset":{
		"generator":"Khronos glTF Blender I/O v4.1.63",
		"version":"2.0"
	},
	"scene":0,
	"scenes":[
		{
			"name":"Scene",
			"nodes":[
				0
			]
		}
	],
	"nodes":[
		{
			"mesh":0,
			"name":"factory.001"
		}
	],
	"animations":[
		{
			"channels":[
				{
					"sampler":0,
					"target":{
						"node":0,
						"path":"translation"
					}
				},
				{
					"sampler":1,
					"target":{
						"node":0,
						"path":"rotation"
					}
				},
				{
					"sampler":2,
					"target":{
						"node":0,
						"path":"scale"
					}
				}
			],
			"name":"factory.001Action",
			"samplers":[
				{
					"input":5,
					"interpolation":"LINEAR",
					"output":6
				},
				{
					"input":7,
					"interpolation":"STEP",
					"output":8
				},
				{
					"input":5,
					"interpolation":"LINEAR",
					"output":9
				}
			]
		}
	],
	"materials":[
		{
			"doubleSided":true,
			"name":"\u30de\u30c6\u30ea\u30a2\u30eb",
			"pbrMetallicRoughness":{
				"baseColorTexture":{
					"index":0
				},
				"metallicFactor":0,
				"roughnessFactor":0.5
			}
		}
	],
	"meshes":[
		{
			"name":"\u7403.009",
			"primitives":[
				{
					"attributes":{
						"POSITION":0,
						"NORMAL":1,
						"TEXCOORD_0":2,
						"TEXCOORD_1":3
					},
					"indices":4,
					"material":0
				}
			]
		}
	],
	"textures":[
		{
			"sampler":0,
			"source":0
		}
	],
	"images":[
		{
			"mimeType":"image/png",
			"name":"title",
			"uri":"title.png"
		}
	],
	"accessors":[
		{
			"bufferView":0,
			"componentType":5126,
			"count":9214,
			"max":[
				1.5563023090362549,
				-0.03960299864411354,
				0.12778934836387634
			],
			"min":[
				-1.513079285621643,
				-0.5923932194709778,
				-0.08990439772605896
			],
			"type":"VEC3"
		},
		{
			"bufferView":1,
			"componentType":5126,
			"count":9214,
			"type":"VEC3"
		},
		{
			"bufferView":2,
			"componentType":5126,
			"count":9214,
			"type":"VEC2"
		},
		{
			"bufferView":3,
			"componentType":5126,
			"count":9214,
			"type":"VEC2"
		},
		{
			"bufferView":4,
			"componentType":5123,
			"count":29454,
			"type":"SCALAR"
		},
		{
			"bufferView":5,
			"componentType":5126,
			"count":90,
			"max":[
				3.75
			],
			"min":[
				0.041666666666666664
			],
			"type":"SCALAR"
		},
		{
			"bufferView":6,
			"componentType":5126,
			"count":90,
			"type":"VEC3"
		},
		{
			"bufferView":7,
			"componentType":5126,
			"count":2,
			"max":[
				3.75
			],
			"min":[
				0.041666666666666664
			],
			"type":"SCALAR"
		},
		{
			"bufferView":8,
			"componentType":5126,
			"count":2,
			"type":"VEC4"
		},
		{
			"bufferView":9,
			"componentType":5126,
			"count":90,
			"type":"VEC3"
		}
	],
	"bufferViews":[
		{
			"buffer":0,
			"byteLength":110568,
			"byteOffset":0,
			"target":34962
		},
		{
			"buffer":0,
			"byteLength":110568,
			"byteOffset":110568,
			"target":34962
		},
		{
			"buffer":0,
			"byteLength":73712,
			"byteOffset":221136,
			"target":34962
		},
		{
			"buffer":0,
			"byteLength":73712,
			"byteOffset":294848,
			"target":34962
		},
		{
			"buffer":0,
			"byteLength":58908,
			"byteOffset":368560,
			"target":34963
		},
		{
			"buffer":0,
			"byteLength":360,
			"byteOffset":427468
		},
		{
			"buffer":0,
			"byteLength":1080,
			"byteOffset":427828
		},
		{
			"buffer":0,
			"byteLength":8,
			"byteOffset":428908
		},
		{
			"buffer":0,
			"byteLength":32,
			"byteOffset":428916
		},
		{
			"buffer":0,
			"byteLength":1080,
			"byteOffset":428948
		}
	],
	"samplers":[
		{
			"magFilter":9729,
			"minFilter":9987
		}
	],
	"buffers":[
		{
			"byteLength":430028,
			"uri":"title5.bin"
		}
	]
}
