{
	"asset":{
		"generator":"Khronos glTF Blender I/O v4.1.63",
		"version":"2.0"
	},
	"scene":0,
	"scenes":[
		{
			"name":"Scene",
			"nodes":[
				2
			]
		}
	],
	"nodes":[
		{
			"name":"bsne"
		},
		{
			"mesh":0,
			"name":"n.005",
			"skin":0
		},
		{
			"children":[
				1,
				0
			],
			"name":"4",
			"translation":[
				0.8202699422836304,
				0.1714390367269516,
				0
			]
		}
	],
	"animations":[
		{
			"channels":[
				{
					"sampler":0,
					"target":{
						"node":0,
						"path":"translation"
					}
				},
				{
					"sampler":1,
					"target":{
						"node":0,
						"path":"rotation"
					}
				},
				{
					"sampler":2,
					"target":{
						"node":0,
						"path":"scale"
					}
				}
			],
			"name":"4Action",
			"samplers":[
				{
					"input":8,
					"interpolation":"STEP",
					"output":9
				},
				{
					"input":8,
					"interpolation":"STEP",
					"output":10
				},
				{
					"input":11,
					"interpolation":"LINEAR",
					"output":12
				}
			]
		}
	],
	"materials":[
		{
			"doubleSided":true,
			"name":"\u30de\u30c6\u30ea\u30a2\u30eb",
			"pbrMetallicRoughness":{
				"baseColorTexture":{
					"index":0
				},
				"metallicFactor":0,
				"roughnessFactor":0.5
			}
		}
	],
	"meshes":[
		{
			"name":"n.001",
			"primitives":[
				{
					"attributes":{
						"POSITION":0,
						"NORMAL":1,
						"TEXCOORD_0":2,
						"TEXCOORD_1":3,
						"JOINTS_0":4,
						"WEIGHTS_0":5
					},
					"indices":6,
					"material":0
				}
			]
		}
	],
	"textures":[
		{
			"sampler":0,
			"source":0
		}
	],
	"images":[
		{
			"mimeType":"image/png",
			"name":"title",
			"uri":"title.png"
		}
	],
	"skins":[
		{
			"inverseBindMatrices":7,
			"joints":[
				0
			],
			"name":"4"
		}
	],
	"accessors":[
		{
			"bufferView":0,
			"componentType":5126,
			"count":1947,
			"max":[
				1.1068545579910278,
				0.6606482863426208,
				0.05000002309679985
			],
			"min":[
				0.6128877997398376,
				0.13274487853050232,
				-0.04999999329447746
			],
			"type":"VEC3"
		},
		{
			"bufferView":1,
			"componentType":5126,
			"count":1947,
			"type":"VEC3"
		},
		{
			"bufferView":2,
			"componentType":5126,
			"count":1947,
			"type":"VEC2"
		},
		{
			"bufferView":3,
			"componentType":5126,
			"count":1947,
			"type":"VEC2"
		},
		{
			"bufferView":4,
			"componentType":5121,
			"count":1947,
			"type":"VEC4"
		},
		{
			"bufferView":5,
			"componentType":5126,
			"count":1947,
			"type":"VEC4"
		},
		{
			"bufferView":6,
			"componentType":5123,
			"count":5748,
			"type":"SCALAR"
		},
		{
			"bufferView":7,
			"componentType":5126,
			"count":1,
			"type":"MAT4"
		},
		{
			"bufferView":8,
			"componentType":5126,
			"count":2,
			"max":[
				3.75
			],
			"min":[
				0
			],
			"type":"SCALAR"
		},
		{
			"bufferView":9,
			"componentType":5126,
			"count":2,
			"type":"VEC3"
		},
		{
			"bufferView":10,
			"componentType":5126,
			"count":2,
			"type":"VEC4"
		},
		{
			"bufferView":11,
			"componentType":5126,
			"count":91,
			"max":[
				3.75
			],
			"min":[
				0
			],
			"type":"SCALAR"
		},
		{
			"bufferView":12,
			"componentType":5126,
			"count":91,
			"type":"VEC3"
		}
	],
	"bufferViews":[
		{
			"buffer":0,
			"byteLength":23364,
			"byteOffset":0,
			"target":34962
		},
		{
			"buffer":0,
			"byteLength":23364,
			"byteOffset":23364,
			"target":34962
		},
		{
			"buffer":0,
			"byteLength":15576,
			"byteOffset":46728,
			"target":34962
		},
		{
			"buffer":0,
			"byteLength":15576,
			"byteOffset":62304,
			"target":34962
		},
		{
			"buffer":0,
			"byteLength":7788,
			"byteOffset":77880,
			"target":34962
		},
		{
			"buffer":0,
			"byteLength":31152,
			"byteOffset":85668,
			"target":34962
		},
		{
			"buffer":0,
			"byteLength":11496,
			"byteOffset":116820,
			"target":34963
		},
		{
			"buffer":0,
			"byteLength":64,
			"byteOffset":128316
		},
		{
			"buffer":0,
			"byteLength":8,
			"byteOffset":128380
		},
		{
			"buffer":0,
			"byteLength":24,
			"byteOffset":128388
		},
		{
			"buffer":0,
			"byteLength":32,
			"byteOffset":128412
		},
		{
			"buffer":0,
			"byteLength":364,
			"byteOffset":128444
		},
		{
			"buffer":0,
			"byteLength":1092,
			"byteOffset":128808
		}
	],
	"samplers":[
		{
			"magFilter":9729,
			"minFilter":9987
		}
	],
	"buffers":[
		{
			"byteLength":129900,
			"uri":"title4.bin"
		}
	]
}
