{
	"asset":{
		"generator":"Khronos glTF Blender I/O v4.1.63",
		"version":"2.0"
	},
	"scene":0,
	"scenes":[
		{
			"name":"Scene",
			"nodes":[
				2
			]
		}
	],
	"nodes":[
		{
			"name":"bone",
			"rotation":[
				0,
				-1.4375492796148137e-08,
				-1.4375492796148137e-08,
				1
			],
			"translation":[
				-5.640188760480669e-09,
				1.3779442475936321e-08,
				0
			]
		},
		{
			"mesh":0,
			"name":"factory.001",
			"skin":0
		},
		{
			"children":[
				1,
				0
			],
			"name":"5",
			"rotation":[
				0,
				0,
				0.7071068286895752,
				0.7071068286895752
			],
			"translation":[
				1.4926278591156006,
				-0.315236896276474,
				0
			]
		}
	],
	"animations":[
		{
			"channels":[
				{
					"sampler":0,
					"target":{
						"node":0,
						"path":"translation"
					}
				},
				{
					"sampler":1,
					"target":{
						"node":0,
						"path":"rotation"
					}
				},
				{
					"sampler":2,
					"target":{
						"node":0,
						"path":"scale"
					}
				}
			],
			"name":"5Action",
			"samplers":[
				{
					"input":8,
					"interpolation":"LINEAR",
					"output":9
				},
				{
					"input":10,
					"interpolation":"STEP",
					"output":11
				},
				{
					"input":8,
					"interpolation":"LINEAR",
					"output":12
				}
			]
		}
	],
	"materials":[
		{
			"doubleSided":true,
			"name":"\u30de\u30c6\u30ea\u30a2\u30eb",
			"pbrMetallicRoughness":{
				"baseColorTexture":{
					"index":0
				},
				"metallicFactor":0,
				"roughnessFactor":0.5
			}
		}
	],
	"meshes":[
		{
			"name":"factory",
			"primitives":[
				{
					"attributes":{
						"POSITION":0,
						"NORMAL":1,
						"TEXCOORD_0":2,
						"TEXCOORD_1":3,
						"JOINTS_0":4,
						"WEIGHTS_0":5
					},
					"indices":6,
					"material":0
				}
			]
		}
	],
	"textures":[
		{
			"sampler":0,
			"source":0
		}
	],
	"images":[
		{
			"mimeType":"image/png",
			"name":"title",
			"uri":"title.png"
		}
	],
	"skins":[
		{
			"inverseBindMatrices":7,
			"joints":[
				0
			],
			"name":"5"
		}
	],
	"accessors":[
		{
			"bufferView":0,
			"componentType":5126,
			"count":9214,
			"max":[
				1.5563023090362549,
				-0.03960299864411354,
				0.12778934836387634
			],
			"min":[
				-1.513079285621643,
				-0.5923932194709778,
				-0.08990439772605896
			],
			"type":"VEC3"
		},
		{
			"bufferView":1,
			"componentType":5126,
			"count":9214,
			"type":"VEC3"
		},
		{
			"bufferView":2,
			"componentType":5126,
			"count":9214,
			"type":"VEC2"
		},
		{
			"bufferView":3,
			"componentType":5126,
			"count":9214,
			"type":"VEC2"
		},
		{
			"bufferView":4,
			"componentType":5121,
			"count":9214,
			"type":"VEC4"
		},
		{
			"bufferView":5,
			"componentType":5126,
			"count":9214,
			"type":"VEC4"
		},
		{
			"bufferView":6,
			"componentType":5123,
			"count":29454,
			"type":"SCALAR"
		},
		{
			"bufferView":7,
			"componentType":5126,
			"count":1,
			"type":"MAT4"
		},
		{
			"bufferView":8,
			"componentType":5126,
			"count":91,
			"max":[
				3.75
			],
			"min":[
				0
			],
			"type":"SCALAR"
		},
		{
			"bufferView":9,
			"componentType":5126,
			"count":91,
			"type":"VEC3"
		},
		{
			"bufferView":10,
			"componentType":5126,
			"count":2,
			"max":[
				3.75
			],
			"min":[
				0
			],
			"type":"SCALAR"
		},
		{
			"bufferView":11,
			"componentType":5126,
			"count":2,
			"type":"VEC4"
		},
		{
			"bufferView":12,
			"componentType":5126,
			"count":91,
			"type":"VEC3"
		}
	],
	"bufferViews":[
		{
			"buffer":0,
			"byteLength":110568,
			"byteOffset":0,
			"target":34962
		},
		{
			"buffer":0,
			"byteLength":110568,
			"byteOffset":110568,
			"target":34962
		},
		{
			"buffer":0,
			"byteLength":73712,
			"byteOffset":221136,
			"target":34962
		},
		{
			"buffer":0,
			"byteLength":73712,
			"byteOffset":294848,
			"target":34962
		},
		{
			"buffer":0,
			"byteLength":36856,
			"byteOffset":368560,
			"target":34962
		},
		{
			"buffer":0,
			"byteLength":147424,
			"byteOffset":405416,
			"target":34962
		},
		{
			"buffer":0,
			"byteLength":58908,
			"byteOffset":552840,
			"target":34963
		},
		{
			"buffer":0,
			"byteLength":64,
			"byteOffset":611748
		},
		{
			"buffer":0,
			"byteLength":364,
			"byteOffset":611812
		},
		{
			"buffer":0,
			"byteLength":1092,
			"byteOffset":612176
		},
		{
			"buffer":0,
			"byteLength":8,
			"byteOffset":613268
		},
		{
			"buffer":0,
			"byteLength":32,
			"byteOffset":613276
		},
		{
			"buffer":0,
			"byteLength":1092,
			"byteOffset":613308
		}
	],
	"samplers":[
		{
			"magFilter":9729,
			"minFilter":9987
		}
	],
	"buffers":[
		{
			"byteLength":614400,
			"uri":"title5.bin"
		}
	]
}
