{
	"asset":{
		"generator":"Khronos glTF Blender I/O v4.1.63",
		"version":"2.0"
	},
	"scene":0,
	"scenes":[
		{
			"name":"Scene",
			"nodes":[
				0
			]
		}
	],
	"nodes":[
		{
			"mesh":0,
			"name":"ni.002"
		}
	],
	"animations":[
		{
			"channels":[
				{
					"sampler":0,
					"target":{
						"node":0,
						"path":"translation"
					}
				},
				{
					"sampler":1,
					"target":{
						"node":0,
						"path":"rotation"
					}
				},
				{
					"sampler":2,
					"target":{
						"node":0,
						"path":"scale"
					}
				}
			],
			"name":"ni.002Action",
			"samplers":[
				{
					"input":5,
					"interpolation":"LINEAR",
					"output":6
				},
				{
					"input":7,
					"interpolation":"STEP",
					"output":8
				},
				{
					"input":5,
					"interpolation":"LINEAR",
					"output":9
				}
			]
		}
	],
	"materials":[
		{
			"doubleSided":true,
			"name":"\u30de\u30c6\u30ea\u30a2\u30eb",
			"pbrMetallicRoughness":{
				"baseColorTexture":{
					"index":0
				},
				"metallicFactor":0,
				"roughnessFactor":0.5
			}
		}
	],
	"meshes":[
		{
			"name":"\u7403.012",
			"primitives":[
				{
					"attributes":{
						"POSITION":0,
						"NORMAL":1,
						"TEXCOORD_0":2,
						"TEXCOORD_1":3
					},
					"indices":4,
					"material":0
				}
			]
		}
	],
	"textures":[
		{
			"sampler":0,
			"source":0
		}
	],
	"images":[
		{
			"mimeType":"image/png",
			"name":"title",
			"uri":"title.png"
		}
	],
	"accessors":[
		{
			"bufferView":0,
			"componentType":5126,
			"count":2474,
			"max":[
				-0.5822517275810242,
				0.6402862668037415,
				0.05000002309679985
			],
			"min":[
				-1.116188406944275,
				0.1297282874584198,
				-0.04999999329447746
			],
			"type":"VEC3"
		},
		{
			"bufferView":1,
			"componentType":5126,
			"count":2474,
			"type":"VEC3"
		},
		{
			"bufferView":2,
			"componentType":5126,
			"count":2474,
			"type":"VEC2"
		},
		{
			"bufferView":3,
			"componentType":5126,
			"count":2474,
			"type":"VEC2"
		},
		{
			"bufferView":4,
			"componentType":5123,
			"count":7308,
			"type":"SCALAR"
		},
		{
			"bufferView":5,
			"componentType":5126,
			"count":70,
			"max":[
				2.9166666666666665
			],
			"min":[
				0.041666666666666664
			],
			"type":"SCALAR"
		},
		{
			"bufferView":6,
			"componentType":5126,
			"count":70,
			"type":"VEC3"
		},
		{
			"bufferView":7,
			"componentType":5126,
			"count":2,
			"max":[
				2.9166666666666665
			],
			"min":[
				0.041666666666666664
			],
			"type":"SCALAR"
		},
		{
			"bufferView":8,
			"componentType":5126,
			"count":2,
			"type":"VEC4"
		},
		{
			"bufferView":9,
			"componentType":5126,
			"count":70,
			"type":"VEC3"
		}
	],
	"bufferViews":[
		{
			"buffer":0,
			"byteLength":29688,
			"byteOffset":0,
			"target":34962
		},
		{
			"buffer":0,
			"byteLength":29688,
			"byteOffset":29688,
			"target":34962
		},
		{
			"buffer":0,
			"byteLength":19792,
			"byteOffset":59376,
			"target":34962
		},
		{
			"buffer":0,
			"byteLength":19792,
			"byteOffset":79168,
			"target":34962
		},
		{
			"buffer":0,
			"byteLength":14616,
			"byteOffset":98960,
			"target":34963
		},
		{
			"buffer":0,
			"byteLength":280,
			"byteOffset":113576
		},
		{
			"buffer":0,
			"byteLength":840,
			"byteOffset":113856
		},
		{
			"buffer":0,
			"byteLength":8,
			"byteOffset":114696
		},
		{
			"buffer":0,
			"byteLength":32,
			"byteOffset":114704
		},
		{
			"buffer":0,
			"byteLength":840,
			"byteOffset":114736
		}
	],
	"samplers":[
		{
			"magFilter":9729,
			"minFilter":9987
		}
	],
	"buffers":[
		{
			"byteLength":115576,
			"uri":"title1.bin"
		}
	]
}
